<svg id="Layer_1" data-name="Layer 1" xmlns="http://www.w3.org/2000/svg" viewBox="0 0 442.36 300.93"><defs><style>.cls-1{fill:#231f20;}</style></defs><title>peakboard-logo-with-claim-01-01</title><path id="Logo_Claim" class="cls-1" d="M477.65,353c0-7.66-6.33-9.72-9.48-9.72a9.65,9.65,0,0,0,0,19.29c6.68,0,9.52-6.08,9.52-9.57Zm5.1-13.65v23.52c0,8.94-5.44,14.39-14.72,14.39a14.14,14.14,0,0,1-13.41-8.6h5.69a8.94,8.94,0,0,0,7.77,3.93c5.4,0,9.47-2.55,9.47-9.62-.93,1.28-3.63,4.27-9.38,4.27a14.66,14.66,0,0,1-14.53-14.39,14.39,14.39,0,0,1,14.63-14.23,12.91,12.91,0,0,1,9.38,3.87v-3.14Zm-34.06,27.21H443.6V351.77c0-2.11,0-8.49-6.79-8.49-4.27,0-7.16,3-7.16,8.44v14.84h-5.11V339.35h4.76a12.39,12.39,0,0,1,.1,2.9,9.66,9.66,0,0,1,8-3.63,11,11,0,0,1,9.61,4.86,13.19,13.19,0,0,1,1.72,7v16.11Zm-31.93-36.34v6h-5.12v-6Zm0,9.13v27.21h-5.12V339.35Zm-12.33,27.21h-5.11V351.77c0-2.11,0-8.49-6.78-8.49-4.27,0-7.17,3-7.17,8.44v14.84h-5.1V330.22h5.1s.1,0,.1,12c2.46-3.63,6.53-3.63,7.62-3.63a11,11,0,0,1,9.62,4.86,13.28,13.28,0,0,1,1.72,7v16.11ZM370.69,344v22.54h-5.11V344H361.9v-4.67h3.68v-9.13h5.11v9.13h4.47V344Zm-32.88,9c0-7.66-6.34-9.72-9.49-9.72a9.65,9.65,0,0,0,0,19.29c6.67,0,9.53-6.08,9.53-9.57Zm5.1-13.65v23.52c0,8.94-5.45,14.39-14.73,14.39a14.14,14.14,0,0,1-13.4-8.6h5.69a8.9,8.9,0,0,0,7.76,3.93c5.4,0,9.48-2.55,9.48-9.62-.94,1.28-3.63,4.27-9.39,4.27a14.66,14.66,0,0,1-14.53-14.39,14.4,14.4,0,0,1,14.63-14.23,12.93,12.93,0,0,1,9.39,3.87v-3.14Zm-33.32,27.21h-5.1V351.77c0-2.11,0-8.49-6.78-8.49-4.27,0-7.17,3-7.17,8.44v14.84h-5.11V339.35h4.77a12.39,12.39,0,0,1,.1,2.9,9.66,9.66,0,0,1,7.95-3.63,11.05,11.05,0,0,1,9.63,4.86,13.29,13.29,0,0,1,1.71,7v16.11Zm-31.66-36.34v6h-5.1v-6Zm0,9.13v27.21h-5.1V339.35Zm-28.5,0h17.38v5l-12.32,17.58h13.36v4.67H248.16v-4L261.22,344H249.43v-4.67Zm-6.25-9.13v6h-5.11v-6Zm0,9.13v27.21h-5.11V339.35Zm-11.81-9.13v36.34h-5.1V330.22ZM214.26,353c0-5.79-4.17-9.72-9.42-9.72-6.29,0-9.34,5.45-9.34,9.72a9.38,9.38,0,1,0,18.76,0Zm5,13.56h-5.1a26.22,26.22,0,0,1-.1-4.23,10.4,10.4,0,0,1-9.23,4.91,14,14,0,0,1-14.44-14.19c0-6.63,4.67-14.43,14.44-14.43a11,11,0,0,1,9.33,4.56v-3.83h5.1v27.21Zm-57.68-27.21h5.1v14.73c0,6.73,3,8.49,6.77,8.49,4.22,0,7.12-2.69,7.12-8.63V339.35h5.11v27.21H181a14.21,14.21,0,0,1-.09-2.95c-1.37,2.35-4.56,3.63-8,3.63a11.67,11.67,0,0,1-7.77-2.7c-2.25-2-3.57-5-3.57-10.46V339.35Zm-5.94,7.23h-5.11c-.29-2.22-1.62-3.3-3.48-3.3a2.92,2.92,0,0,0-3.19,2.89c0,2.26,2,2.86,4.22,3.54,2.11.64,8.2,2.36,8.2,8.84,0,4.81-3.34,8.69-9.13,8.69-3.44,0-9.63-2.16-9.63-9.62h5.1c.21,3,1.77,4.95,4.62,4.95a3.6,3.6,0,0,0,3.93-3.73c0-2.4-2.11-3.24-4.77-4.17-2.94-1.08-7.65-2.4-7.65-8.2,0-4,3.39-7.85,8.54-7.85,3.1,0,8.21,1.91,8.35,8Zm-23.08-16.36v6h-5.1v-6Zm0,9.13v27.21h-5.1V339.35Zm-10,0-10.72,27.21h-3.58l-10.8-27.21h5.45s.1,0,7.23,19.44l7-19.44Zm383.79,7.23h-5.11c-.29-2.22-1.62-3.3-3.49-3.3a2.92,2.92,0,0,0-3.19,2.89c0,2.26,2,2.86,4.22,3.54,2.11.64,8.2,2.36,8.2,8.84,0,4.81-3.34,8.69-9.13,8.69-3.44,0-9.62-2.16-9.62-9.62h5.1c.2,3,1.77,4.95,4.62,4.95a3.61,3.61,0,0,0,3.93-3.73c0-2.4-2.11-3.24-4.76-4.17-2.95-1.08-7.67-2.4-7.67-8.2,0-4,3.39-7.85,8.55-7.85,3.09,0,8.2,1.91,8.35,8ZM365.09,198V76.33h27.29v63.44l25.64-33h32.37l-34.34,40.11L449.41,198H418.52l-25.81-43.88L392.38,198Zm-274.16,62c0,12.65,8.55,23.5,22.18,23.5,14,0,22.85-11.34,22.85-23.34,0-11.83-8.87-23.17-22.35-23.17-14.46,0-22.68,11.67-22.68,23Zm96.45.16c0,13.31,10,23,21.86,23s21.86-9.7,21.86-23-10-23-21.86-23-21.86,9.69-21.86,23Zm95.27.33c0,8.55,6.25,23,22.69,23,17.09,0,22.84-14.46,22.84-23.34,0-11-7.56-23.17-23-23.17-15.61,0-22.52,13.14-22.52,23.5Zm-169-84.81c14.3,0,22.84-11.67,22.84-23.18,0-10.85-7.89-23.34-22.84-23.34s-22.85,12.49-22.85,23.34c0,11.51,8.55,23.18,22.85,23.18Zm73.77-33.37H228.8c-1.16-5.42-6.58-15.61-20.71-15.61s-19.56,10.19-20.71,15.61Zm168.08-35.5V198H328.18v-9.86c-4.93,8.87-16.27,13-26.95,13-25.78,0-42-18-45.27-40.44h-68.9c1.64,10.85,10.68,17.26,21.36,17.26,8.38,0,12.82-3.78,16.61-8.55H253c-4.43,10.19-10.83,18.08-18.57,23.34a44.26,44.26,0,0,1-26,8.22,48.51,48.51,0,0,1-46.3-34.44c-5,19.92-21.31,34.61-42.76,34.61-16.43,0-24.16-7.89-27.45-11.35v32.06c9.7-10.36,22.69-10.36,26.47-10.36,16.5,0,38.05,10.23,43.55,35.36,5-18.26,20.59-35.19,47.31-35.19,27,0,42.65,17.36,47.5,35.88,5.1-22.47,23.78-36,44.49-36,14.95,0,23.33,7.24,26.63,12.82l.32-9.69h27.28v91.21H328.18v-9.86c-4.93,8.88-16.27,13-26.95,13-24.15,0-39.93-15.79-44.49-36.21-4.85,18.53-20.45,35.88-47.5,35.88-26.89,0-42.45-17.14-47.41-35.54C156.51,297,137,308.9,117.23,308.9c-12.83,0-22.68-6.25-26.14-12.82l-.33,9.69H64.63v-199H90.27v10c5.92-6.9,15-13.15,28.93-13.15,25.48,0,38.43,17.6,42.8,35.44,5.62-19.69,23.18-35.44,45.93-35.44,25.41,0,44.62,18.43,47.72,42.84,2.59-26.51,22.86-42.84,45.58-42.84,14.95,0,23.33,7.23,26.63,12.82l.32-9.7Zm-72.81,45.86c0,8.54,6.25,23,22.69,23,17.09,0,22.84-14.47,22.84-23.34,0-11-7.56-23.18-23-23.18-15.61,0-22.52,13.15-22.52,23.51Zm223.09,31.56V305.77h-26v-9.86c-2.63,3.78-9.21,12.82-27.62,12.82-27.61,0-45.68-21.36-45.68-48.81a54.53,54.53,0,0,1,3.9-20.87c-10.74.77-18,4.11-18,16.6v50.12H365.09V214.56h25.65v9.69c2.62-4.43,7.39-12.82,23.17-12.82v20.72a44.26,44.26,0,0,1,37.75-20.72c16.11,0,23.83,7.89,26.8,10.85V184.15Zm-72,75.6c0,14.14,10,23.51,22.84,23.51,17.1,0,23.34-14,23.34-23.51,0-11-7.89-22.84-23-22.84-15.79,0-23.18,12.32-23.18,22.84Z" transform="translate(-64.63 -76.33)"/></svg>